<svg xmlns="http://www.w3.org/2000/svg" width="48" height="48" viewBox="0 0 48 48" fill="none">
  <path d="M24 30a6 6 0 1 0 0-12 6 6 0 0 0 0 12z" fill="#1C1C1E"/>
  <path d="M41.8 26.6l-3.4-1.2c-.3-1-.7-2-1.2-2.9l1.6-3.2c.3-.6.2-1.3-.3-1.8l-2.8-2.8c-.5-.5-1.2-.6-1.8-.3l-3.2 1.6c-.9-.5-1.9-.9-2.9-1.2l-1.2-3.4c-.2-.6-.8-1-1.4-1h-4c-.6 0-1.2.4-1.4 1l-1.2 3.4c-1 .3-2 .7-2.9 1.2l-3.2-1.6c-.6-.3-1.3-.2-1.8.3l-2.8 2.8c-.5.5-.6 1.2-.3 1.8l1.6 3.2c-.5.9-.9 1.9-1.2 2.9l-3.4 1.2c-.6.2-1 .8-1 1.4v4c0 .6.4 1.2 1 1.4l3.4 1.2c.3 1 .7 2 1.2 2.9l-1.6 3.2c-.3.6-.2 1.3.3 1.8l2.8 2.8c.5.5 1.2.6 1.8.3l3.2-1.6c.9.5 1.9.9 2.9 1.2l1.2 3.4c.2.6.8 1 1.4 1h4c.6 0 1.2-.4 1.4-1l1.2-3.4c1-.3 2-.7 2.9-1.2l3.2 1.6c.6.3 1.3.2 1.8-.3l2.8-2.8c.5-.5.6-1.2.3-1.8l-1.6-3.2c.5-.9.9-1.9 1.2-2.9l3.4-1.2c.6-.2 1-.8 1-1.4v-4c0-.6-.4-1.2-1-1.4zM24 31a7 7 0 1 1 0-14 7 7 0 0 1 0 14z" fill="#1C1C1E"/>
</svg>
