<svg xmlns="http://www.w3.org/2000/svg" width="48" height="48" viewBox="0 0 48 48" fill="none">
  <path fill-rule="evenodd" clip-rule="evenodd" d="M21.2 6a1.5 1.5 0 0 0-1.47 1.2l-.86 4.3a14 14 0 0 0-3.46 2l-4.04-1.62a1.5 1.5 0 0 0-1.78.6l-2.8 4.84a1.5 1.5 0 0 0 .3 1.82l3.18 2.68a14 14 0 0 0 0 4.01l-3.18 2.68a1.5 1.5 0 0 0-.3 1.82l2.8 4.84a1.5 1.5 0 0 0 1.78.6l4.04-1.62a14 14 0 0 0 3.46 2l.86 4.3A1.5 1.5 0 0 0 21.2 42h5.6a1.5 1.5 0 0 0 1.47-1.2l.86-4.3a14 14 0 0 0 3.46-2l4.04 1.62a1.5 1.5 0 0 0 1.78-.6l2.8-4.84a1.5 1.5 0 0 0-.3-1.82l-3.18-2.68a14 14 0 0 0 0-4.01l3.18-2.68a1.5 1.5 0 0 0 .3-1.82l-2.8-4.84a1.5 1.5 0 0 0-1.78-.6l-4.04 1.62a14 14 0 0 0-3.46-2l-.86-4.3A1.5 1.5 0 0 0 26.8 6h-5.6zM24 30a6 6 0 1 0 0-12 6 6 0 0 0 0 12z" fill="#1C1C1E"/>
</svg>
